<?xml version="1.0" encoding="UTF-8"?>
<svg xmlns="http://www.w3.org/2000/svg" width="1200" height="630" viewBox="0 0 1200 630">
  <defs>
    <linearGradient id="bg" x1="0" y1="0" x2="1" y2="1">
      <stop offset="0%" stop-color="#EC1C24"/>
      <stop offset="55%" stop-color="#C91319"/>
      <stop offset="100%" stop-color="#8F0E13"/>
    </linearGradient>
    <radialGradient id="glow" cx="0.85" cy="0.15" r="0.55">
      <stop offset="0%" stop-color="#FFCD00" stop-opacity="0.35"/>
      <stop offset="100%" stop-color="#FFCD00" stop-opacity="0"/>
    </radialGradient>
    <radialGradient id="glow2" cx="0.1" cy="1" r="0.5">
      <stop offset="0%" stop-color="#FFFFFF" stop-opacity="0.12"/>
      <stop offset="100%" stop-color="#FFFFFF" stop-opacity="0"/>
    </radialGradient>
    <pattern id="grid" width="56" height="56" patternUnits="userSpaceOnUse">
      <path d="M 56 0 L 0 0 0 56" fill="none" stroke="#FFFFFF" stroke-opacity="0.05" stroke-width="1"/>
    </pattern>
  </defs>

  <!-- Background -->
  <rect width="1200" height="630" fill="url(#bg)"/>
  <rect width="1200" height="630" fill="url(#grid)"/>
  <rect width="1200" height="630" fill="url(#glow)"/>
  <rect width="1200" height="630" fill="url(#glow2)"/>

  <!-- Claro logo top-left -->
  <g transform="translate(80, 80) scale(0.18)">
    <defs
   id="defs37" />
<style
   type="text/css"
   id="style2">
	.st0{fill:#FFFFFF;}
	.st1{fill:#FFFFFF;}
</style>
<path
   class="st0"
   d="m 1614.24,377.28 c -38.88,-38.88 -86.4,-57.6 -139.68,-57.6 -53.28,0 -97.92,18.72 -136.8,57.6 -38.88,38.88 -57.6,86.4 -57.6,141.12 0,54.72 18.72,100.8 57.6,139.68 37.44,38.88 84.96,57.6 136.8,57.6 51.84,0 100.8,-18.72 139.68,-57.6 38.88,-38.88 56.16,-84.96 56.16,-139.68 0,-57.6 -18.72,-102.24 -56.16,-141.12 M 1548,590.4 c -18.72,21.6 -44.64,30.24 -72,30.24 -27.36,0 -53.28,-10.08 -72,-30.24 -18.72,-21.6 -30.24,-46.08 -30.24,-73.44 0,-30.24 10.08,-54.72 30.24,-73.44 18.72,-21.6 44.64,-30.24 72,-30.24 28.8,-1.44 53.28,8.64 73.44,30.24 18.72,18.72 28.8,44.64 30.24,73.44 -2.88,27.36 -11.52,51.84 -31.68,73.44"
   id="path4"
   style="stroke-width:14.4" />
<path
   class="st0"
   d="M 240.48,221.76 C 174.24,220.32 116.64,244.8 69.12,293.76 23.04,341.28 0,397.44 0,466.56 c 0,66.24 23.04,125.28 70.56,172.8 47.52,47.52 102.24,70.56 171.36,70.56 54.72,0 103.68,-15.84 145.44,-48.96 41.76,-33.12 70.56,-77.76 84.96,-128.16 H 374.4 c -12.96,24.48 -30.24,46.08 -53.28,61.92 -24.48,15.84 -50.4,23.04 -80.64,23.04 -41.76,0 -77.76,-15.84 -105.12,-44.64 C 105.12,542.88 90.72,508.32 90.72,468 c 0,-41.76 14.4,-77.76 44.64,-108 28.8,-28.8 63.36,-44.64 105.12,-44.64 28.8,0 54.72,8.64 80.64,24.48 23.04,15.84 40.32,37.44 53.28,61.92 h 97.92 c -14.4,-53.28 -41.76,-95.04 -84.96,-128.16 -41.76,-36 -93.6,-53.28 -146.88,-51.84"
   id="path6"
   style="stroke-width:14.4" />
<path
   class="st0"
   d="m 836.64,316.8 c -63.36,-1.44 -108,15.84 -132.48,48.96 -15.84,21.6 -24.48,47.52 -25.92,82.08 h 93.6 c 1.44,-15.84 7.2,-25.92 14.4,-33.12 10.08,-12.96 25.92,-18.72 48.96,-17.28 18.72,-1.44 34.56,2.88 46.08,8.64 10.08,5.76 15.84,15.84 15.84,31.68 0,12.96 -7.2,23.04 -21.6,28.8 l -72,12.96 c -33.12,5.76 -60.48,12.96 -80.64,24.48 -34.56,21.6 -53.28,54.72 -50.4,102.24 -1.44,33.12 10.08,60.48 31.68,80.64 18.72,15.84 46.08,24.48 77.76,25.92 50.4,-1.44 92.16,-14.4 120.96,-38.88 v 38.88 h 93.6 V 434.88 c 0,-46.08 -15.84,-77.76 -47.52,-93.6 C 911.52,324 876.96,316.8 836.64,316.8 m 38.88,213.12 17.28,-10.08 v 38.88 c 0,31.68 -8.64,54.72 -25.92,66.24 -17.28,12.96 -37.44,18.72 -57.6,18.72 -14.4,0 -24.48,-2.88 -33.12,-10.08 -8.64,-8.64 -14.4,-18.72 -14.4,-37.44 0,-18.72 7.2,-31.68 23.04,-41.76 8.64,-5.76 24.48,-10.08 44.64,-12.96 z"
   id="path8"
   style="stroke-width:14.4" />
<rect
   x="519.83997"
   y="221.75999"
   class="st0"
   width="93.599998"
   height="489.60001"
   id="rect10"
   style="stroke-width:14.4" />
<g
   id="g14"
   transform="scale(14.4)">
	<path
   class="st0"
   d="m 84.1,23 c -1.7,0.7 -3.3,1.8 -4.6,3.7 v -3.3 h -6.2 v 26 h 6.5 V 36.9 c 0,-2.1 0.2,-3.7 0.9,-4.5 0.5,-1 1.2,-1.8 2.2,-2.4 1.1,-0.7 2.3,-1.1 3.5,-1.1 l 2,0.1 v -6.6 l -1.7,-0.1 z"
   id="path12" />
</g>
<rect
   x="957.71582"
   y="1344.3217"
   transform="rotate(-45.032412)"
   class="st0"
   width="319.677"
   height="84.959198"
   id="rect16"
   style="stroke-width:14.3999" />
<rect
   x="1445.76"
   class="st0"
   width="84.959999"
   height="243.36"
   id="rect18"
   y="0"
   style="stroke-width:14.4" />
<rect
   x="1728"
   y="426.23999"
   class="st0"
   width="247.68001"
   height="84.959999"
   id="rect20"
   style="stroke-width:14.4" />
<g
   id="g32"
   transform="scale(14.4)">
	<path
   class="st1"
   d="M 154.6,40.4 159.7,22 h 7.7 l -9.3,27.4 h -7 L 141.8,22 h 7.7 z"
   id="path22" />
	<path
   class="st1"
   d="m 170.6,14.9 c 0,-1.2 0.4,-2 1.2,-2.8 0.8,-0.8 1.7,-1 3,-1 1.3,0 2.2,0.3 3,1 0.7,0.7 1.2,1.6 1.2,2.8 0,1.2 -0.4,2 -1.2,2.8 -0.8,0.8 -1.7,1 -3,1 -1.3,0 -2.2,-0.3 -3,-1 -1,-0.9 -1.2,-1.8 -1.2,-2.8 z m 7.6,34.4 h -7.4 V 21.8 h 7.4 z"
   id="path24" />
	<path
   class="st1"
   d="m 183.2,35.3 c 0,-4.2 1,-7.7 2.9,-10.2 1.9,-2.5 4.5,-3.8 7.8,-3.8 2.6,0 4.9,1 6.7,3 V 10.5 h 7.4 v 38.9 h -6.7 L 201,46.5 c -1.9,2.3 -4.2,3.5 -7.1,3.5 -3.2,0 -5.8,-1.3 -7.8,-3.8 -1.9,-2.7 -2.9,-6.2 -2.9,-10.9 z m 7.2,0.6 c 0,2.6 0.4,4.5 1.3,6 0.9,1.3 2.2,2 3.9,2 2.3,0 3.9,-1 4.8,-2.9 V 30.1 c -0.9,-1.9 -2.5,-2.9 -4.8,-2.9 -3.4,0.2 -5.2,2.9 -5.2,8.7 z"
   id="path26" />
	<path
   class="st1"
   d="m 226.2,49.9 c -4.1,0 -7.3,-1.2 -9.9,-3.6 -2.5,-2.5 -3.8,-5.8 -3.8,-9.9 v -0.7 c 0,-2.8 0.6,-5.2 1.6,-7.4 1,-2.2 2.6,-3.8 4.5,-5.1 1.9,-1.3 4.2,-1.7 6.7,-1.7 3.8,0 6.7,1.2 8.9,3.5 2.2,2.3 3.2,5.7 3.2,10 v 3 H 220 c 0.3,1.7 1,3.2 2.2,4.4 1.2,1 2.8,1.6 4.5,1.6 2.8,0 5.1,-1 6.7,-3 l 3.6,4.1 c -1.2,1.6 -2.6,2.8 -4.5,3.6 -2,0.7 -4,1.2 -6.3,1.2 z m -0.9,-22.5 c -1.5,0 -2.6,0.4 -3.5,1.5 -0.9,1 -1.5,2.3 -1.7,4.2 h 10.2 v -0.6 c 0,-1.6 -0.4,-2.9 -1.3,-3.8 -1,-0.9 -2.1,-1.3 -3.7,-1.3 z"
   id="path28" />
	<path
   class="st1"
   d="m 240.5,35.3 c 0,-2.8 0.6,-5.1 1.6,-7.3 1,-2.2 2.6,-3.8 4.5,-4.9 1.9,-1.1 4.2,-1.7 6.8,-1.7 3.6,0 6.7,1.2 9,3.3 2.3,2.1 3.6,5.4 3.9,9.3 v 1.9 c 0,4.2 -1.2,7.5 -3.5,10.2 -2.3,2.7 -5.5,3.8 -9.4,3.8 -3.9,0 -7.1,-1.3 -9.4,-3.8 -2.3,-2.5 -3.5,-6 -3.5,-10.3 z m 7.3,0.6 c 0,2.6 0.4,4.6 1.5,6 1,1.5 2.3,2 4.2,2 1.7,0 3.2,-0.7 4.2,-2 1,-1.3 1.5,-3.5 1.5,-6.5 0,-2.6 -0.4,-4.5 -1.5,-6 -1,-1.5 -2.5,-2.2 -4.2,-2.2 -1.7,0 -3.2,0.7 -4.2,2 -1.1,1.6 -1.5,3.8 -1.5,6.7 z"
   id="path30" />
</g>

  </g>

  <!-- Divider -->
  <rect x="80" y="240" width="80" height="4" fill="#FFCD00" rx="2"/>

  <!-- Title -->
  <text x="80" y="340" fill="#FFFFFF" font-family="Arial, sans-serif" font-weight="900" font-size="112" letter-spacing="-3">Claro</text>
  <text x="80" y="460" fill="#FFCD00" font-family="Arial, sans-serif" font-weight="900" font-size="112" letter-spacing="-3" font-style="italic">Acelera</text>

  <!-- Subtitle -->
  <text x="80" y="520" fill="#FFFFFF" fill-opacity="0.9" font-family="Arial, sans-serif" font-weight="500" font-size="26">Intervenção comercial especializada</text>
  <text x="80" y="556" fill="#FFFFFF" fill-opacity="0.9" font-family="Arial, sans-serif" font-weight="500" font-size="26">em rede de parceiros Claro.</text>

  <!-- Bottom meta strip -->
  <rect x="80" y="580" width="1040" height="1" fill="#FFFFFF" fill-opacity="0.25"/>
  <text x="80" y="615" fill="#FFCD00" font-family="Arial, sans-serif" font-weight="700" font-size="18" letter-spacing="2">PROPOSTA COMERCIAL · RODRIGO BRAGA · 2026</text>

  <!-- Accent circle right -->
  <circle cx="1050" cy="315" r="160" fill="#FFCD00" fill-opacity="0.08"/>
  <circle cx="1050" cy="315" r="90" fill="#FFCD00" fill-opacity="0.12"/>
  <circle cx="1050" cy="315" r="32" fill="#FFCD00" fill-opacity="0.4"/>
  <circle cx="1050" cy="315" r="10" fill="#FFCD00"/>
</svg>